<svg xmlns="http://www.w3.org/2000/svg" id="Camada_1" data-name="Camada 1" viewBox="0 0 287 266"><defs><style>.cls-1{fill:none;}.cls-2{fill:#85c226;}.cls-3{fill:#13214a;}</style></defs><ellipse class="cls-1" cx="136.52" cy="144.88" rx="44.33" ry="60.7"></ellipse><path class="cls-2" d="M155.91,42.38A102.51,102.51,0,0,0,53.4,144.88a63.73,63.73,0,0,0,83.12,60.7,63.72,63.72,0,1,1,83.11-60.7,102.53,102.53,0,0,1-83.11,100.65A102.5,102.5,0,1,0,155.91,42.38Z"></path><path class="cls-3" d="M155.91,81.16a63.35,63.35,0,0,0-19.39,3,63.72,63.72,0,1,1-83.12,60.7A102.53,102.53,0,0,1,136.52,44.23a102.5,102.5,0,1,0-19.4,203.15,102.5,102.5,0,0,0,102.51-102.5A63.72,63.72,0,0,0,155.91,81.16Z"></path></svg>