<svg xmlns="http://www.w3.org/2000/svg" id="Camada_1" data-name="Camada 1" viewBox="0 0 730 266"><defs><style>.cls-1{fill:#fff;}.cls-2{fill:none;}.cls-3{fill:#85c226;}</style></defs><path class="cls-1" d="M300.49,63.27h99.57V97.89H341.62v30.44h49.81v32.3H341.62v30.44h83.69v34.62H300.49Z"></path><path class="cls-1" d="M631.47,60.72A83.54,83.54,0,1,0,715,144.25,83.54,83.54,0,0,0,631.47,60.72Zm0,128.26a44.73,44.73,0,1,1,44.72-44.73A44.73,44.73,0,0,1,631.47,189Z"></path><path class="cls-1" d="M554.38,191.07H473.13V63.27H432V225.69H592.71A90.56,90.56,0,0,1,554.38,191.07Z"></path><path class="cls-1" d="M301.94,17.9h12.58q4.92,0,7.71,2.49c1.85,1.65,2.78,4,2.78,7.12a9.91,9.91,0,0,1-1.36,5.33,8.28,8.28,0,0,1-3.85,3.29l5,9.77h-7.29L313,37.13h-4V45.9h-7.09Zm11.34,13.26a5.6,5.6,0,0,0,3.28-.82,3.24,3.24,0,0,0,1.16-2.83,3.23,3.23,0,0,0-1.14-2.86,5.83,5.83,0,0,0-3.3-.78H309v7.29Z"></path><path class="cls-1" d="M335.83,17.9h19.86v6H342.91v5.25h9.34v5.56h-9.34v5.25h12.78v6H335.83Z"></path><path class="cls-1" d="M366.5,17.9h10.06a18.18,18.18,0,0,1,8.05,1.68,12.3,12.3,0,0,1,5.3,4.83,14.09,14.09,0,0,1,1.87,7.35q0,7-4.09,10.55T376.36,45.9H366.5Zm10.46,22a7,7,0,0,0,5.58-2.2,8.69,8.69,0,0,0,1.95-6,8.28,8.28,0,0,0-1.95-5.67,6.71,6.71,0,0,0-5.34-2.22h-3.61V39.93Z"></path><path class="cls-1" d="M402.59,17.9h19.87v6H409.68v5.25H419v5.56h-9.33v5.25h12.78v6H402.59Z"></path><ellipse class="cls-2" cx="136.52" cy="144.88" rx="44.33" ry="60.7"></ellipse><path class="cls-3" d="M155.91,42.38A102.51,102.51,0,0,0,53.4,144.88a63.73,63.73,0,0,0,83.12,60.7,63.72,63.72,0,1,1,83.11-60.7,102.53,102.53,0,0,1-83.11,100.65A102.5,102.5,0,1,0,155.91,42.38Z"></path><path class="cls-1" d="M155.91,81.16a63.35,63.35,0,0,0-19.39,3,63.72,63.72,0,1,1-83.12,60.7A102.53,102.53,0,0,1,136.52,44.23a102.5,102.5,0,1,0-19.4,203.15,102.5,102.5,0,0,0,102.51-102.5A63.72,63.72,0,0,0,155.91,81.16Z"></path></svg>